<svg width="319" height="69" viewBox="0 0 319 69" fill="none" xmlns="http://www.w3.org/2000/svg">
<rect width="319" height="69" fill="black"/>
<path d="M269.009 33.383C266.862 24.9575 275.092 18.8298 275.45 18.4468L279 15L279.792 17.2979L283.172 15L284.243 17.2979L287.5 15L288.5 17.2979L291.5 15L293 17.2979L296 15.117L298 17.2979L301 15.117L302 17.2979L305.5 15L303 18.4468C300.376 21.383 295.916 28.5575 299.064 33.766C301.569 39.5107 296.56 46.149 294.413 50.6171C294.413 50.6171 285 53.5 279.206 50.6171C273.413 47.7341 264 50.6171 264 50.6171C266.385 47.6809 270.727 40.1234 269.009 33.383Z" fill="white" stroke="black" stroke-width="4" stroke-linejoin="round"/>
<path d="M42.05 38.35L48.35 39.2C47.1 45.3 41.9 51.8 32.5 51.8C22.45 51.8 15.45 44.75 15.45 33.15C15.45 21.6 22.45 14.5 32.5 14.5C40.95 14.5 46.15 19.95 47.8 24.8L41.6 26C40.3 22.6 37.25 19.75 32.5 19.75C26.15 19.75 21.9 24.5 21.9 33.15C21.9 41.85 26.15 46.6 32.5 46.6C38.1 46.6 41.05 42.7 42.05 38.35ZM51.548 14.8H57.398V51H51.548V14.8ZM84.6078 51L78.9078 51.05C78.4578 50.55 78.1078 49.25 78.1078 47.45C76.4078 50.35 72.6078 51.65 69.3078 51.65C64.5578 51.65 60.5078 48.65 60.5078 43.75C60.5078 38.05 64.6078 35.95 71.6578 35.2C76.7578 34.65 78.0578 33.8 78.0578 32.2C78.0578 30 76.5578 28.5 72.9078 28.5C70.3078 28.5 67.8078 29.85 66.9078 32.75L61.5078 31.7C62.6578 26.9 67.1578 24 73.0578 24C80.9078 24 83.9078 27.6 83.9078 32.25V45.5C83.9078 48.4 83.9578 49.85 84.6078 51ZM78.0578 40.65V37.65C77.2078 38.5 74.4078 38.9 71.6078 39.25C68.9578 39.65 66.5078 40.9 66.5078 43.65C66.5078 46 68.1078 47.25 70.7078 47.25C73.9078 47.25 78.0578 45.4 78.0578 40.65ZM109.079 31.6L103.729 32.55C103.029 29.6 100.629 28.2 97.9285 28.2C95.0785 28.2 93.1285 29.45 93.1285 31.75C93.1285 33.9 95.2785 34.45 98.0285 34.95L100.679 35.35C105.279 36.15 109.729 37.55 109.729 43.3C109.729 48.9 104.729 51.65 98.1785 51.65C91.3285 51.65 86.9285 48.3 86.0285 43.35L91.4285 42.4C92.2285 45.9 94.7285 47.45 98.2785 47.45C101.479 47.45 103.729 46 103.729 43.5C103.729 41.35 101.529 40.6 98.4285 40.05L95.6785 39.6C91.5285 38.9 87.1785 37.45 87.1785 31.9C87.1785 27.2 91.7785 24 97.9285 24C103.879 24 108.379 27.4 109.079 31.6ZM134.127 31.6L128.777 32.55C128.077 29.6 125.677 28.2 122.977 28.2C120.127 28.2 118.177 29.45 118.177 31.75C118.177 33.9 120.327 34.45 123.077 34.95L125.727 35.35C130.327 36.15 134.777 37.55 134.777 43.3C134.777 48.9 129.777 51.65 123.227 51.65C116.377 51.65 111.977 48.3 111.077 43.35L116.477 42.4C117.277 45.9 119.777 47.45 123.327 47.45C126.527 47.45 128.777 46 128.777 43.5C128.777 41.35 126.577 40.6 123.477 40.05L120.727 39.6C116.577 38.9 112.227 37.45 112.227 31.9C112.227 27.2 116.827 24 122.977 24C128.927 24 133.427 27.4 134.127 31.6ZM167.926 24C172.476 24 176.776 26.85 176.776 33.55V51H170.926V35.2C170.926 30.5 169.076 28.8 165.876 28.8C162.976 28.8 160.226 31.45 160.226 36.55V51H154.376V35.2C154.376 30.5 152.526 28.8 149.326 28.8C146.376 28.8 143.626 31.45 143.626 36.55V51H137.776V24.6H143.376V28.1H143.576C145.526 25.3 148.226 24 151.376 24C154.476 24 157.476 25.3 159.026 28.3C161.376 25.6 163.926 24 167.926 24ZM203.748 51L198.048 51.05C197.598 50.55 197.248 49.25 197.248 47.45C195.548 50.35 191.748 51.65 188.448 51.65C183.698 51.65 179.648 48.65 179.648 43.75C179.648 38.05 183.748 35.95 190.798 35.2C195.898 34.65 197.198 33.8 197.198 32.2C197.198 30 195.698 28.5 192.048 28.5C189.448 28.5 186.948 29.85 186.048 32.75L180.648 31.7C181.798 26.9 186.298 24 192.198 24C200.048 24 203.048 27.6 203.048 32.25V45.5C203.048 48.4 203.098 49.85 203.748 51ZM197.198 40.65V37.65C196.348 38.5 193.548 38.9 190.748 39.25C188.098 39.65 185.648 40.9 185.648 43.65C185.648 46 187.248 47.25 189.848 47.25C193.048 47.25 197.198 45.4 197.198 40.65ZM218.369 46.25C219.019 46.25 220.069 46.25 220.819 46.2V51.05C220.219 51.1 218.169 51.15 216.719 51.15C211.769 51.15 209.519 50 209.519 45.1V28.8H205.219V24.6H209.519V17.15H215.369V24.6H221.069V28.8H215.369V43.55C215.369 46 216.319 46.25 218.369 46.25ZM241.725 42.65L247.675 43.25C246.575 47.05 243.225 51.65 235.225 51.65C227.525 51.65 222.475 46.15 222.475 37.85C222.475 29.5 227.325 24 235.175 24C243.075 24 248.575 29.55 247.875 39.15H228.425C228.525 43.75 231.125 47.15 235.225 47.15C239.525 47.15 241.175 44.45 241.725 42.65ZM235.175 28.45C231.025 28.45 228.875 31.5 228.525 35H241.925C241.575 31.5 239.425 28.45 235.175 28.45Z" fill="white"/>
<path d="M277 24.617H293.5" stroke="black" stroke-width="2" stroke-linecap="round" stroke-linejoin="round"/>
<path d="M275 30.617H291.5" stroke="black" stroke-width="2" stroke-linecap="round" stroke-linejoin="round"/>
<path d="M276 36.617H292.5" stroke="black" stroke-width="2" stroke-linecap="round" stroke-linejoin="round"/>
<path d="M274 42.617C274 42.617 279.028 42.617 282.25 42.617C285.472 42.617 290.5 42.617 290.5 42.617" stroke="black" stroke-width="2" stroke-linecap="round" stroke-linejoin="round"/>
</svg>
